# xmcd
#
# Track frame offsets: 
#        150
#        5022
#        22145
#        40407
#        53360
#        70790
#        88512
#        108860
#        129550
#        133717
#        152085
#        155815
#        179692
#        198592
#        217065
#        234757
#        252225
#        281507
#
# Disc length: 3811 seconds
#
# Revision: 4
# Processed by: cddbd v1.5.2PL0 Copyright (c) Steve Scherf et al.
# Submitted via: ExactAudioCopyFreeDBPlugin 1.0
#
DISCID=000ee112
DTITLE=Keith Sweat - Didn't See Me Coming
DYEAR=2000
DGENRE=R&B
TTITLE0=Intro
TTITLE1=Things ft. Busta Rhymes and Rah Digga
TTITLE2=Whatch Like
TTITLE3=Satisfy You
TTITLE4=I Put U On
TTITLE5=He Say She Say ft. T-Boz
TTITLE6=Real Man
TTITLE7=Kiss You
TTITLE8=I'll Trade (A Million Bucks)(Interlude) ft. Lil Mo
TTITLE9=Don't Have Me ft. David Hollister
TTITLE10=Tonite
TTITLE11=Caught Up
TTITLE12=Games
TTITLE13=I'll Trade (A Million Bucks) ft. Lil' Mo
TTITLE14=Only Wanna Please You
TTITLE15=Why U Treat Me So Cold ft. Lil' Wayne
TTITLE16=I'll Trade (A Million Bucks)(Remix) ft. Lil' Mo (Bonus Track)
TTITLE17=data
EXTD=
EXTT0=
EXTT1=
EXTT2=
EXTT3=
EXTT4=
EXTT5=
EXTT6=
EXTT7=
EXTT8=
EXTT9=
EXTT10=
EXTT11=
EXTT12=
EXTT13=
EXTT14=
EXTT15=
EXTT16=
EXTT17=
PLAYORDER=
